#!OML:ASF C:\Vicon Data\Big\jianyuan-12\jianyuan\Session 1\Capture.male.ASF
:FULLY-SPECIFIED
:DEGREES
209
root -11.730409 16.771329 -9.087799 2.214568 -29.990699 10.860433
lowerback -8.367703 -2.849967 -9.780884 
upperback 1.862875 -2.584318 -1.902458 
thorax 7.059879 -1.611817 3.089336 
lowerneck -2.053423 -5.467826 -6.465906 
upperneck 8.204071 -7.500862 6.393924 
head 3.622933 -3.693639 2.990585 
rclavicle 0.000000 0.000000 
rhumerus -42.611514 -30.538783 -74.817553 
rradius 34.580560 
rwrist 38.088107 
rhand -22.294140 -4.614426 
rfingers 0.000000 
rthumb 4.124742 -34.554261 
lclavicle 0.000000 0.000000 
lhumerus -19.970182 24.084456 82.465502 
lradius 32.877002 
lwrist -42.051855 
lhand -11.353534 4.230847 
lfingers 0.000000 
lthumb 14.679938 33.691144 
rfemur -39.157614 -8.136724 13.650652 
rtibia 56.920877 
rfoot -19.278062 -9.289538 
rtoes -17.489302 
lfemur -12.577347 -3.076470 -31.572547 
ltibia 24.608588 
lfoot -25.769481 3.771611 
ltoes -11.968588 
210
root -11.759301 16.769579 -9.027913 2.280530 -30.103983 10.755053
lowerback -8.340515 -2.828377 -9.700936 
upperback 1.829332 -2.573283 -1.865623 
thorax 7.003682 -1.601403 3.088365 
lowerneck -1.893744 -5.477509 -6.472388 
upperneck 8.146650 -7.518228 6.383805 
head 3.573257 -3.705628 2.991060 
rclavicle 0.000000 0.000000 
rhumerus -42.794341 -30.626597 -74.682952 
rradius 34.587644 
rwrist 37.841458 
rhand -22.352920 -4.726389 
rfingers 0.000000 
rthumb 4.067975 -34.667312 
lclavicle 0.000000 0.000000 
lhumerus -19.730216 23.485093 82.664744 
lradius 33.205946 
lwrist -41.515373 
lhand -11.376857 4.253786 
lfingers 0.000000 
lthumb 14.657437 33.715712 
rfemur -39.228632 -7.855983 13.738649 
rtibia 55.398834 
rfoot -19.390348 -9.311305 
rtoes -17.002902 
lfemur -12.230102 -3.047141 -31.508528 
ltibia 24.382759 
lfoot -25.755747 3.773441 
ltoes -10.979646 
211
root -11.786384 16.772139 -8.966995 2.260226 -30.141331 10.797842
lowerback -8.303167 -2.831278 -9.704459 
upperback 1.826599 -2.579423 -1.893635 
thorax 6.978922 -1.602753 3.061291 
lowerneck -1.795484 -5.478281 -6.398212 
upperneck 8.084962 -7.525663 6.390976 
head 3.529687 -3.708569 2.981654 
rclavicle 0.000000 0.000000 
rhumerus -42.932201 -30.699339 -74.635967 
rradius 34.613619 
rwrist 37.449799 
rhand -22.311170 -4.661654 
rfingers 0.000000 
rthumb 4.108254 -34.601787 
lclavicle 0.000000 0.000000 
lhumerus -19.341941 23.272024 82.809901 
lradius 33.322108 
lwrist -41.601822 
lhand -11.526623 4.049641 
lfingers 0.000000 
lthumb 14.513153 33.521979 
rfemur -39.249405 -7.705831 13.656684 
rtibia 53.830368 
rfoot -19.466348 -9.215266 
rtoes -16.748443 
lfemur -11.829895 -3.100271 -31.591297 
ltibia 24.118141 
lfoot -25.809033 3.799611 
ltoes -10.831144 
212
root -11.816518 16.768793 -8.904521 2.185331 -30.224350 10.799963
lowerback -8.301203 -2.831564 -9.727127 
upperback 1.944325 -2.572554 -1.854969 
thorax 7.107384 -1.609855 3.111852 
lowerneck -1.939974 -5.495533 -6.446885 
upperneck 8.064686 -7.538933 6.389989 
head 3.553915 -3.714570 2.986355 
rclavicle 0.000000 0.000000 
rhumerus -42.903881 -30.883410 -74.550515 
rradius 34.595734 
rwrist 37.412563 
rhand -22.366711 -4.594272 
rfingers 0.000000 
rthumb 4.054653 -34.535442 
lclavicle 0.000000 0.000000 
lhumerus -18.951178 22.766246 83.074302 
lradius 33.714081 
lwrist -41.268876 
lhand -11.578577 4.034714 
lfingers 0.000000 
lthumb 14.463096 33.510702 
rfemur -39.148479 -7.516320 13.668771 
rtibia 52.191719 
rfoot -19.411305 -9.261426 
rtoes -17.540145 
lfemur -11.311020 -3.061654 -31.633216 
ltibia 23.796441 
lfoot -25.909430 3.852885 
ltoes -11.170759 
213
root -11.848125 16.765701 -8.838074 2.183604 -30.350824 10.852371
lowerback -8.432081 -2.847456 -9.746113 
upperback 1.979005 -2.573738 -1.844755 
thorax 7.222072 -1.616647 3.126237 
lowerneck -1.924667 -5.470866 -6.545450 
upperneck 8.052230 -7.506477 6.451845 
head 3.553189 -3.699932 3.028394 
rclavicle 0.000000 0.000000 
rhumerus -42.949097 -30.982014 -74.444513 
rradius 34.579634 
rwrist 37.474887 
rhand -22.264039 -4.715653 
rfingers 0.000000 
rthumb 4.153840 -34.654856 
lclavicle 0.000000 0.000000 
lhumerus -18.627386 22.523593 83.238941 
lradius 33.986607 
lwrist -41.176781 
lhand -11.588963 3.919973 
lfingers 0.000000 
lthumb 14.453083 33.396628 
rfemur -39.132314 -7.360743 13.658000 
rtibia 50.489124 
rfoot -19.237811 -9.302119 
rtoes -18.239735 
lfemur -10.859764 -3.086407 -31.729077 
ltibia 23.443961 
lfoot -26.066736 3.992247 
ltoes -11.137180 
214
root -11.880510 16.767314 -8.778605 2.196219 -30.394458 10.865437
lowerback -8.394346 -2.856806 -9.793736 
upperback 1.920872 -2.590233 -1.835389 
thorax 7.142736 -1.622226 3.163498 
lowerneck -1.757156 -5.480652 -6.472048 
upperneck 8.046198 -7.525611 6.388697 
head 3.512765 -3.711803 2.995537 
rclavicle 0.000000 0.000000 
rhumerus -43.223212 -31.098374 -74.236169 
rradius 34.497422 
rwrist 37.660377 
rhand -22.228052 -4.657613 
rfingers 0.000000 
rthumb 4.188557 -34.596142 
lclavicle 0.000000 0.000000 
lhumerus -18.388806 22.193137 83.368124 
lradius 34.151232 
lwrist -40.824344 
lhand -11.613674 3.733109 
lfingers 0.000000 
lthumb 14.429293 33.211517 
rfemur -39.055063 -7.184794 13.633864 
rtibia 48.729647 
rfoot -19.108607 -9.264135 
rtoes -18.024176 
lfemur -10.448318 -2.957428 -31.758073 
ltibia 23.104086 
lfoot -26.113417 3.933908 
ltoes -11.310554 
215
root -11.909609 16.766735 -8.719153 2.172507 -30.438067 10.861745
lowerback -8.348280 -2.867336 -9.833850 
upperback 2.002833 -2.604405 -1.778747 
thorax 7.211954 -1.637713 3.242587 
lowerneck -1.968262 -5.501885 -6.539092 
upperneck 8.064617 -7.543639 6.413090 
head 3.566147 -3.718645 3.010726 
rclavicle 0.000000 0.000000 
rhumerus -43.182886 -31.229547 -74.139045 
rradius 34.364096 
rwrist 37.858211 
rhand -22.458078 -4.560948 
rfingers 0.000000 
rthumb 3.966459 -34.503757 
lclavicle 0.000000 0.000000 
lhumerus -18.020411 21.759648 83.657444 
lradius 34.523169 
lwrist -40.335260 
lhand -11.647328 3.739005 
lfingers 0.000000 
lthumb 14.396817 33.219716 
rfemur -38.886040 -6.842664 13.521153 
rtibia 46.937525 
rfoot -19.011909 -9.150829 
rtoes -17.691963 
lfemur -9.979040 -2.982304 -31.788362 
ltibia 22.736896 
lfoot -26.194079 4.035677 
ltoes -11.447361 
216
root -11.940873 16.767963 -8.655579 2.173930 -30.512090 10.819697
lowerback -8.374088 -2.856058 -9.778237 
upperback 2.011826 -2.592860 -1.767091 
thorax 7.232330 -1.631221 3.224701 
lowerneck -1.892716 -5.483186 -6.533990 
upperneck 8.068693 -7.524445 6.436513 
head 3.552692 -3.709351 3.020697 
rclavicle 0.000000 0.000000 
rhumerus -43.398855 -31.309685 -74.023173 
rradius 34.420251 
rwrist 37.813512 
rhand -22.559544 -4.758445 
rfingers 0.000000 
rthumb 3.868477 -34.703077 
lclavicle 0.000000 0.000000 
lhumerus -17.841935 21.265371 83.828117 
lradius 34.958557 
lwrist -39.727964 
lhand -11.638063 3.907443 
lfingers 0.000000 
lthumb 14.405767 33.387477 
rfemur -38.669203 -6.514135 13.440421 
rtibia 45.113842 
rfoot -18.885845 -8.961631 
rtoes -17.142002 
lfemur -9.468032 -3.071360 -31.791612 
ltibia 22.334231 
lfoot -26.323538 4.227994 
ltoes -11.690032 
217
root -11.972190 16.767269 -8.593947 2.182364 -30.627276 10.895343
lowerback -8.473773 -2.859905 -9.831176 
upperback 2.036265 -2.577361 -1.772338 
thorax 7.317043 -1.629493 3.245857 
lowerneck -1.911443 -5.481299 -6.521620 
upperneck 8.044345 -7.518061 6.404771 
head 3.544735 -3.706688 3.007184 
rclavicle 0.000000 0.000000 
rhumerus -43.482509 -31.407636 -73.923049 
rradius 34.393053 
rwrist 37.973399 
rhand -22.486129 -4.863829 
rfingers 0.000000 
rthumb 3.939377 -34.807152 
lclavicle 0.000000 0.000000 
lhumerus -17.535551 21.013217 83.982235 
lradius 35.219172 
lwrist -39.522257 
lhand -11.666783 3.920857 
lfingers 0.000000 
lthumb 14.378096 33.402874 
rfemur -38.538320 -6.219110 13.277334 
rtibia 43.261946 
rfoot -18.640301 -8.785100 
rtoes -16.840099 
lfemur -9.034790 -3.076128 -31.895491 
ltibia 21.914508 
lfoot -26.407360 4.369667 
ltoes -11.875542 
218
root -12.003563 16.768257 -8.533746 2.142057 -30.685490 10.932905
lowerback -8.456591 -2.848439 -9.867467 
upperback 2.051726 -2.558712 -1.776715 
thorax 7.323266 -1.622520 3.264472 
lowerneck -1.834515 -5.499579 -6.441659 
upperneck 7.981568 -7.545054 6.373615 
head 3.503935 -3.720063 2.981879 
rclavicle 0.000000 0.000000 
rhumerus -43.627600 -31.511920 -73.828091 
rradius 34.411370 
rwrist 37.867308 
rhand -22.351402 -4.950626 
rfingers 0.000000 
rthumb 4.069480 -34.891514 
lclavicle 0.000000 0.000000 
lhumerus -17.254289 20.746759 84.120529 
lradius 35.454864 
lwrist -39.284431 
lhand -11.624813 3.848389 
lfingers 0.000000 
lthumb 14.418536 33.327523 
rfemur -38.291959 -5.862920 13.115195 
rtibia 41.394732 
rfoot -18.486314 -8.711274 
rtoes -16.310944 
lfemur -8.527626 -3.037921 -31.959031 
ltibia 21.479227 
lfoot -26.446438 4.440819 
ltoes -12.018934 
219
root -12.035717 16.769025 -8.472945 2.191100 -30.691671 10.863144
lowerback -8.467730 -2.857183 -9.780432 
upperback 2.048005 -2.579965 -1.768341 
thorax 7.323880 -1.629425 3.221460 
lowerneck -1.785898 -5.504768 -6.427904 
upperneck 7.992968 -7.558326 6.409149 
head 3.500888 -3.725744 2.992169 
rclavicle 0.000000 0.000000 
rhumerus -43.785370 -31.688035 -73.664917 
rradius 34.307574 
rwrist 37.967312 
rhand -22.391923 -4.798422 
rfingers 0.000000 
rthumb 4.030334 -34.740059 
lclavicle 0.000000 0.000000 
lhumerus -17.052233 20.352973 84.243670 
lradius 35.751325 
lwrist -38.792104 
lhand -11.586518 3.820273 
lfingers 0.000000 
lthumb 14.455472 33.296780 
rfemur -38.041414 -5.466625 13.015064 
rtibia 39.509289 
rfoot -18.308019 -8.779475 
rtoes -17.407264 
lfemur -8.045717 -3.099156 -31.924288 
ltibia 21.037207 
lfoot -26.469397 4.553704 
ltoes -12.199005 
220
root -12.067533 16.768167 -8.411672 2.263933 -30.768548 10.919229
lowerback -8.603607 -2.874636 -9.822047 
upperback 2.033293 -2.583739 -1.751464 
thorax 7.390012 -1.635356 3.256624 
lowerneck -1.820814 -5.492522 -6.502854 
upperneck 8.050676 -7.542022 6.447272 
head 3.532851 -3.717938 3.019439 
rclavicle 0.000000 0.000000 
rhumerus -43.909415 -31.885271 -73.447361 
rradius 34.202089 
rwrist 38.406446 
rhand -22.411814 -4.875736 
rfingers 0.000000 
rthumb 4.011125 -34.817694 
lclavicle 0.000000 0.000000 
lhumerus -16.832632 19.920818 84.426246 
lradius 36.053422 
lwrist -38.135139 
lhand -11.611092 3.967965 
lfingers 0.000000 
lthumb 14.431721 33.446145 
rfemur -37.903360 -5.199562 12.868129 
rtibia 37.611660 
rfoot -17.967447 -8.689897 
rtoes -18.321902 
lfemur -7.670550 -3.084466 -32.004461 
ltibia 20.613454 
lfoot -26.500539 4.644544 
ltoes -12.387655 
221
root -12.099561 16.764928 -8.350819 2.187801 -30.807044 10.943473
lowerback -8.528995 -2.886462 -9.857748 
upperback 2.064642 -2.605283 -1.718935 
thorax 7.387613 -1.649388 3.309439 
lowerneck -1.900440 -5.462298 -6.657484 
upperneck 8.035236 -7.501886 6.593568 
head 3.556637 -3.697030 3.099821 
rclavicle 0.000000 0.000000 
rhumerus -43.995287 -32.013242 -73.242300 
rradius 34.062426 
rwrist 38.790672 
rhand -22.386884 -4.625392 
rfingers 0.000000 
rthumb 4.035149 -34.566957 
lclavicle 0.000000 0.000000 
lhumerus -16.551239 19.862617 84.571269 
lradius 36.224933 
lwrist -38.145709 
lhand -11.560422 3.929105 
lfingers 0.000000 
lthumb 14.480580 33.403844 
rfemur -37.566680 -4.861400 12.703983 
rtibia 35.731788 
rfoot -17.628380 -8.644486 
rtoes -18.802613 
lfemur -7.115403 -3.001064 -32.056447 
ltibia 20.178845 
lfoot -26.517877 4.678465 
ltoes -12.568341 
